<?xml version="1.0" standalone="no"?>
<!DOCTYPE svg PUBLIC "-//W3C//DTD SVG 20010904//EN"
 "http://www.w3.org/TR/2001/REC-SVG-20010904/DTD/svg10.dtd">
<svg version="1.0" xmlns="http://www.w3.org/2000/svg"
 width="92.000000pt" height="76.000000pt" viewBox="0 0 92.000000 76.000000"
 preserveAspectRatio="xMidYMid meet">
<metadata>
Created by potrace 1.10, written by Peter Selinger 2001-2011
</metadata>
<g transform="translate(0.000000,76.000000) scale(0.100000,-0.100000)"
fill="#000000" stroke="none">
<path d="M391 708 c-51 -35 -73 -71 -77 -125 -9 -108 88 -190 201 -169 131 25
169 203 61 287 -45 35 -139 39 -185 7z m147 -32 c59 -32 80 -120 41 -170 -44
-56 -110 -70 -167 -36 -72 44 -80 133 -16 189 27 24 44 31 77 31 23 -1 52 -6
65 -14z"/>
<path d="M366 343 c-84 -29 -196 -152 -196 -216 0 -33 35 -18 49 20 21 58 95
129 157 153 140 52 297 -10 353 -140 20 -46 42 -63 55 -41 12 18 -35 103 -82
150 -84 84 -216 113 -336 74z"/>
</g>
</svg>
