<?xml version="1.0" standalone="no"?>
<!DOCTYPE svg PUBLIC "-//W3C//DTD SVG 20010904//EN"
 "http://www.w3.org/TR/2001/REC-SVG-20010904/DTD/svg10.dtd">
<svg version="1.0" xmlns="http://www.w3.org/2000/svg"
 width="120.000000pt" height="92.000000pt" viewBox="0 0 120.000000 92.000000"
 preserveAspectRatio="xMidYMid meet">
<metadata>
Created by potrace 1.10, written by Peter Selinger 2001-2011
</metadata>
<g transform="translate(0.000000,92.000000) scale(0.100000,-0.100000)"
fill="#000000" stroke="none">
<path d="M565 819 c-20 -7 -285 -242 -317 -281 -16 -18 -18 -43 -18 -204 0
-225 -8 -214 155 -214 73 0 115 4 123 12 8 8 12 49 12 120 l0 108 65 0 65 0 0
-108 c0 -71 4 -112 12 -120 8 -8 50 -12 123 -12 163 0 155 -11 155 215 0 177
-1 185 -22 209 -49 53 -299 274 -316 278 -10 3 -27 2 -37 -3z m204 -194 l131
-120 -2 -169 -3 -169 -100 0 -100 0 -3 104 c-1 56 -8 109 -14 116 -7 9 -37 13
-93 13 -56 0 -86 -4 -93 -13 -6 -7 -13 -60 -14 -117 l-3 -103 -100 1 -100 1
-3 167 -2 167 77 72 c43 39 114 104 157 143 l80 71 26 -22 c15 -12 87 -76 159
-142z"/>
</g>
</svg>
