<?xml version="1.0" standalone="no"?>
<!DOCTYPE svg PUBLIC "-//W3C//DTD SVG 20010904//EN"
 "http://www.w3.org/TR/2001/REC-SVG-20010904/DTD/svg10.dtd">
<svg version="1.0" xmlns="http://www.w3.org/2000/svg"
 width="84.000000pt" height="84.000000pt" viewBox="0 0 84.000000 84.000000"
 preserveAspectRatio="xMidYMid meet">
<metadata>
Created by potrace 1.10, written by Peter Selinger 2001-2011
</metadata>
<g transform="translate(0.000000,84.000000) scale(0.100000,-0.100000)"
fill="#000000" stroke="none">
<path d="M434 759 c-3 -6 -7 -81 -8 -166 l-1 -155 -160 -2 c-158 -1 -160 -1
-163 -23 -2 -14 2 -23 10 -24 7 0 82 0 166 1 l154 1 -3 -163 c-3 -155 -2 -163
17 -163 18 0 19 9 21 160 l2 160 158 1 158 1 3 27 3 27 -161 -2 -162 -2 1 160
c2 135 -1 161 -13 166 -9 4 -18 1 -22 -4z"/>
</g>
</svg>
