<?xml version="1.0" standalone="no"?>
<!DOCTYPE svg PUBLIC "-//W3C//DTD SVG 20010904//EN"
 "http://www.w3.org/TR/2001/REC-SVG-20010904/DTD/svg10.dtd">
<svg version="1.0" xmlns="http://www.w3.org/2000/svg"
 width="118.000000pt" height="86.000000pt" viewBox="0 0 118.000000 86.000000"
 preserveAspectRatio="xMidYMid meet">
<metadata>
Created by potrace 1.10, written by Peter Selinger 2001-2011
</metadata>
<g transform="translate(0.000000,86.000000) scale(0.100000,-0.100000)"
fill="#000000" stroke="none">
<path d="M362 793 c-65 -23 -147 -103 -171 -169 -86 -229 117 -459 352 -399
34 8 75 25 90 36 15 11 32 19 36 17 5 -2 45 -38 91 -80 45 -43 88 -78 96 -78
22 0 16 37 -9 57 -13 10 -51 43 -86 74 l-62 57 30 47 c73 115 62 255 -29 359
-75 85 -222 120 -338 79z m205 -43 c185 -65 226 -298 76 -430 -26 -22 -48 -38
-51 -36 -2 3 -17 -1 -33 -9 -40 -21 -145 -19 -194 4 -55 25 -104 76 -133 140
-56 121 3 267 132 327 63 29 127 31 203 4z"/>
</g>
</svg>
