<?xml version="1.0" standalone="no"?>
<!DOCTYPE svg PUBLIC "-//W3C//DTD SVG 20010904//EN"
 "http://www.w3.org/TR/2001/REC-SVG-20010904/DTD/svg10.dtd">
<svg version="1.0" xmlns="http://www.w3.org/2000/svg"
 width="100.000000pt" height="70.000000pt" viewBox="0 0 100.000000 70.000000"
 preserveAspectRatio="xMidYMid meet">
<metadata>
Created by potrace 1.10, written by Peter Selinger 2001-2011
</metadata>
<g transform="translate(0.000000,70.000000) scale(0.100000,-0.100000)"
fill="#000000" stroke="none">
<path d="M196 629 l-26 -20 0 -240 c0 -226 1 -240 20 -259 19 -19 33 -20 320
-20 l301 0 24 25 25 24 0 226 0 227 -29 29 -29 29 -290 0 c-278 0 -290 -1
-316 -21z m594 -28 c0 -4 -19 -21 -42 -36 -24 -15 -81 -57 -128 -93 -47 -36
-90 -69 -97 -74 -7 -6 -52 22 -130 80 -65 49 -128 94 -140 101 -13 6 -23 16
-23 21 0 6 107 10 280 10 154 0 280 -4 280 -9z m-555 -51 c14 -23 258 -200
276 -200 20 0 33 9 202 138 52 39 97 72 99 72 5 0 -1 -403 -7 -418 -3 -10 -68
-12 -297 -10 l-293 3 -5 208 c-3 115 -3 211 -1 213 7 7 20 4 26 -6z"/>
</g>
</svg>
